<?xml version="1.0" encoding="UTF-8"?>
<svg id="Fastbreak.ai_Logo" xmlns="http://www.w3.org/2000/svg" xmlns:xlink="http://www.w3.org/1999/xlink" version="1.1" viewBox="0 0 1333.3 179.8">
  <!-- Generator: Adobe Illustrator 29.1.0, SVG Export Plug-In . SVG Version: 2.1.0 Build 142)  -->
  <defs>
    <style>
      .st0 {
        fill: url(#Fastbreak_Gradient);
      }

      .st0, .st1, .st2, .st3, .st4 {
        fill-rule: evenodd;
      }

      .st5 {
        fill: #fff;
      }

      .st1 {
        fill: #49cbe8;
      }

      .st2 {
        fill: url(#Fastbreak_Gradient3);
      }

      .st3 {
        fill: url(#Fastbreak_Gradient1);
      }

      .st4 {
        fill: url(#Fastbreak_Gradient2);
      }
    </style>
    <linearGradient id="Fastbreak_Gradient" data-name="Fastbreak Gradient" x1="119.7" y1="189.5" x2="201.7" y2="37.1" gradientUnits="userSpaceOnUse">
      <stop offset="0" stop-color="#17f2e3"/>
      <stop offset="1" stop-color="#49cbe8"/>
    </linearGradient>
    <linearGradient id="Fastbreak_Gradient1" data-name="Fastbreak Gradient" x1="100.5" y1="179.2" x2="182.5" y2="26.7" xlink:href="#Fastbreak_Gradient"/>
    <linearGradient id="Fastbreak_Gradient2" data-name="Fastbreak Gradient" x1="38" y1="145.5" x2="120" y2="-6.9" xlink:href="#Fastbreak_Gradient"/>
    <linearGradient id="Fastbreak_Gradient3" data-name="Fastbreak Gradient" x1="18.8" y1="135.2" x2="100.8" y2="-17.2" xlink:href="#Fastbreak_Gradient"/>
  </defs>
  <g>
    <g>
      <polygon class="st5" points="530.2 73.1 560.2 73.1 550.2 130.1 583.1 130.1 593.2 73.1 624.2 73.1 628.2 50.1 534.2 50.1 530.2 73.1"/>
      <path class="st5" d="M710.1,88.9c19-6.3,26.2-38.9-6.3-38.9h-65.6l-14.1,80h68.3c33.9,0,38.9-36.1,17.6-41.1ZM680,110.1h-19.5l1.9-11h19.2c9.8,0,7.7,10.5-1.6,11ZM685.1,81.1h-19.5l1.8-10h19.3c9.9-.1,7.6,10-1.5,10Z"/>
      <polygon class="st5" points="288.2 72.9 339.2 72.9 343.2 50.1 260.4 50.1 246.3 130.1 278.1 130.1 282.5 105.1 319.5 105.1 323.6 82.1 286.6 82.1 288.2 72.9"/>
      <path class="st5" d="M1106.8,92.1l40.9-42.1h-35.1s-16.5,16.6-25.9,26.2-10.9,23.7-2.8,32.3c5.3,5.6,20.4,21.5,20.4,21.5h37.4l-34.9-37.9Z"/>
      <path class="st5" d="M468.3,75.1c2-8,32.8-4.9,50.5.1l4-22.6c-21.2-4.5-79.4-11.7-85.3,20-6,32.1,54.9,23.7,53.6,32.7-1,7.6-29.3,5.3-54.1-3l-4,22.8c34,9.7,83.3,11.3,88.3-19.8,4.9-30.5-55-22.5-53-30.4Z"/>
      <path class="st5" d="M367.7,50.1l-48,80h31l6.4-10.6h37.6l2.6,10.6h31.1l-19.9-80h-40.8ZM369.3,99.5l14.1-22.8,6,22.8h-20.1Z"/>
      <path class="st5" d="M966.9,50.1l-48,80h31l6.4-10.6h37.6l2.6,10.6h31.1l-19.9-80h-40.8ZM968.5,99.5l14.1-22.8,6,22.8h-20.1Z"/>
      <path class="st5" d="M801.9,50.1h-58.6l-14.1,80h33l4.5-25.2h11.1c0-.1,10.7,25.2,10.7,25.2h32.6l-13.1-29.6c27.4-11.4,30.7-50.4-6.1-50.4ZM790.1,81.1h-19.4l1.8-10h19.1c10.1-.1,7.6,10-1.5,10Z"/>
      <polygon class="st5" points="1067.3 130.1 1034.3 130.1 1048.4 50.1 1081.4 50.1 1067.3 130.1"/>
    </g>
    <polygon class="st5" points="922.4 72.1 926.2 50.1 845.2 50.1 831.1 130.1 912.1 130.1 916 108.1 868 108.1 869.6 99.1 909.6 99.1 913 80.1 873 80.1 874.4 72.1 922.4 72.1"/>
  </g>
  <g>
    <path class="st5" d="M1218.8,50.1l-48,80h31l6.4-10.6h37.6l2.6,10.6h31.1l-19.9-80h-40.8ZM1220.4,99.5l14.1-22.8,6,22.8h-20.1Z"/>
    <polygon class="st5" points="1319.2 130.1 1286.2 130.1 1300.3 50.1 1333.3 50.1 1319.2 130.1"/>
  </g>
  <path class="st1" d="M1150.9,112.1c6.4-10.7,14.9-18.3,26.1-22.2-9.9-4-15.9-11.4-18.3-22.2-6.1,10.8-14.8,18.2-26.1,22.2,9.8,3.9,15.7,11.4,18.3,22.2Z"/>
  <g>
    <path class="st0" d="M216.5,33c0,1.8-.4,3.4-2.2,5.2s-52.2,51.7-52.2,51.7c0,0,20.1,19.9,21.6,21.5s2.2,3.2,2.2,5.2v28.8c0,3.6-3.4,5.3-6.5,2.2-2.4-2.4-22.4-21.9-35.6-35.3s-12.8-31.7,0-44.5S207.6,4.1,210.2,1.4c2.7-2.7,6.2-1.5,6.2,2.5v29.1Z"/>
    <path class="st3" d="M108.2,143.5s21.2,21.1,22.5,22.4,3.2,2.2,5.2,2.2h28.7c4,0,5.2-3.6,2.5-6.2-1.4-1.4-20.3-20.4-36.4-36.4-12.3-12.3-32.5-12.3-44.8,0s-35.1,35.1-36.4,36.4c-2.6,2.6-1.4,6.2,2.5,6.2s28.7,0,28.7,0c2,0,3.9-.9,5.2-2.2s22.5-22.4,22.5-22.4Z"/>
    <path class="st4" d="M108.2,36.3s-21.2-21.1-22.5-22.4c-1.3-1.3-3.2-2.2-5.2-2.2,0,0-25.5,0-28.7,0-4,0-5.2,3.6-2.5,6.2s24.1,24.1,36.4,36.4c12.3,12.3,32.4,12.4,44.8,0,12.4-12.4,35.1-35.1,36.4-36.4,2.6-2.6,1.4-6.2-2.5-6.2s-28.7,0-28.7,0c-2,0-3.9.9-5.2,2.2-1.3,1.3-22.5,22.4-22.5,22.4Z"/>
    <path class="st2" d="M0,146.7c0-1.8.4-3.4,2.2-5.2s52.2-51.7,52.2-51.7c0,0-20.1-19.9-21.6-21.5s-2.2-3.2-2.2-5.2c0,0,0-24.6,0-28.8s3.4-5.3,6.5-2.2c2.4,2.4,22.4,21.9,35.6,35.3s12.8,31.7,0,44.5c-12.8,12.9-63.8,63.7-66.4,66.3S0,179.8,0,175.8s0-27.3,0-29.1Z"/>
  </g>
</svg>